<?xml version="1.0" standalone="no"?><!DOCTYPE svg PUBLIC "-//W3C//DTD SVG 1.1//EN" "http://www.w3.org/Graphics/SVG/1.1/DTD/svg11.dtd"><svg t="1633533457519" class="icon" viewBox="0 0 1024 1024" version="1.1" xmlns="http://www.w3.org/2000/svg" p-id="11853" xmlns:xlink="http://www.w3.org/1999/xlink" width="16" height="16"><defs><style type="text/css"></style></defs><path d="M569.645908 102.506629 245.257843 545.598212 459.128839 577.320705 429.452959 921.151587 784.54021 443.267593 532.806885 430.987918 606.484931 109.669772Z" fill="#1296db" p-id="11854"></path><path d="M585.148997 118.751614l0.13917 0M585.148997 118.751614l-63.36926 332.936765 229.554186 0.766456-312.483944 451.359898 63.36926-366.286314-229.554186-0.795109L585.148997 118.751614M585.178673 62.584384c-1.515516 0-3.03001 0.056282-4.51585 0.165776-9.918907 0.795109-16.487509 4.111644-24.282033 9.353019-4.326539 2.87856-8.292873 6.388501-11.762905 10.474562-1.022283 1.206478-1.984191 2.468215-2.894933 3.75758l-314.702472 416.526555c-12.424984 17.029862-14.242376 39.518039-4.709255 58.306964 9.530051 18.783809 28.814256 30.68486 49.942459 30.851659l162.117284 1.177825L383.39804 893.502877c-4.849448 25.805736 8.924253 51.53063 33.139771 61.896722 7.214309 3.098571 14.792914 4.580319 22.285562 4.580319 17.657148 0 32.159444-8.256034 43.041282-23.173792l315.117934-451.357851c12.422937-17.027815 14.239306-39.546691 4.708232-58.305941-9.529027-18.783809-28.813233-30.68486-49.944506-30.851659l-162.114215-0.272199 50.421366-264.047792c1.047866-4.250814 1.599428-8.665357 1.599428-13.217023 0-30.387078-24.188912-55.152111-54.462402-56.137555C586.500784 62.584384 585.840752 62.584384 585.178673 62.584384L585.178673 62.584384z" fill="#1296db" p-id="11855"></path></svg>